<?xml version="1.0" encoding="UTF-8" standalone="no"?>
<svg
   data-name="Layer 2"
   viewBox="0 0 100 100"
   x="0px"
   y="0px"
   version="1.1"
   id="svg2"
   sodipodi:docname="noun-cat-6427503.svg"
   inkscape:version="1.3.2 (091e20ef0f, 2023-11-25)"
   width="100"
   height="100"
   xmlns:inkscape="http://www.inkscape.org/namespaces/inkscape"
   xmlns:sodipodi="http://sodipodi.sourceforge.net/DTD/sodipodi-0.dtd"
   xmlns="http://www.w3.org/2000/svg"
   xmlns:svg="http://www.w3.org/2000/svg"
   xmlns:rdf="http://www.w3.org/1999/02/22-rdf-syntax-ns#"
   xmlns:cc="http://creativecommons.org/ns#"
   xmlns:dc="http://purl.org/dc/elements/1.1/">
  <defs
     id="defs2" />
  <sodipodi:namedview
     id="namedview2"
     pagecolor="#ffffff"
     bordercolor="#000000"
     borderopacity="0.25"
     inkscape:showpageshadow="2"
     inkscape:pageopacity="0.0"
     inkscape:pagecheckerboard="0"
     inkscape:deskcolor="#d1d1d1"
     inkscape:zoom="4.7630713"
     inkscape:cx="50.072734"
     inkscape:cy="62.564674"
     inkscape:window-width="1920"
     inkscape:window-height="1045"
     inkscape:window-x="0"
     inkscape:window-y="0"
     inkscape:window-maximized="1"
     inkscape:current-layer="svg2"
     showguides="false" />
  <title
     id="title1">Artboard 6</title>
  <path
     d="M 89.89,62.449523 A 153.44,153.44 0 0 0 79,5.0895231 142.11,142.11 0 0 0 67.81,35.969523 a 52.24,52.24 0 0 0 -35.62,0 A 142.11,142.11 0 0 0 21,5.0895231 153.34,153.34 0 0 0 10.11,62.599523 c 0,16.43 17.89,32.489997 39.89,32.489997 22,0 39.9,-16.059997 39.9,-32.489997 0,-0.05 -0.01,-0.1 -0.01,-0.15 z m -61.44,9.45 a 11.39,11.39 0 0 1 -6.89,-14.56 l 8.07,2.88 c 0.27,4.89 1.2,8.51 2.32,8.51 1.12,0 1.84,-2.84 2.21,-6.89 l 8.84,3.17 a 11.4,11.4 0 0 1 -14.55,6.89 z m 41.82,0 a 11.4,11.4 0 0 1 -14.56,-6.89 l 8.85,-3.17 c 0.37,4 1.22,6.89 2.21,6.89 0.99,0 2,-3.62 2.32,-8.51 l 8.07,-2.88 a 11.39,11.39 0 0 1 -6.89,14.56 z"
     id="path1" />
  <metadata
     id="metadata1">
    <rdf:RDF>
      <cc:Work
         rdf:about="">
        <dc:title>Artboard 6</dc:title>
      </cc:Work>
    </rdf:RDF>
  </metadata>
</svg>
